<svg width="190" height="175" viewBox="0 0 190 175" fill="none" xmlns="http://www.w3.org/2000/svg">
<g clip-path="url(#clip0_171_186)">
<path d="M95 175C147.468 175 190 135.826 190 87.5C190 39.1744 147.468 0 95 0C42.5318 0 0 39.1744 0 87.5C0 135.826 42.5318 175 95 175Z" fill="#FBFADA"/>
<path d="M95 153.684C131.597 153.684 161.265 124.053 161.265 87.5001C161.265 50.9476 131.597 21.3159 95 21.3159C58.403 21.3159 28.7354 50.9476 28.7354 87.5001C28.7354 124.053 58.403 153.684 95 153.684Z" fill="url(#paint0_linear_171_186)"/>
<path d="M77.2838 59.7731C81.469 66.6024 88.166 76.5646 94.0928 82.1347C93.7419 74.5414 95.4879 62.7695 98.0683 56.0811C101.766 46.5372 108.672 37.339 118.228 30.7231C118.784 30.3731 118.925 29.8183 119.413 29.5408C112.579 26.6128 105.116 24.803 97.2338 24.4573C87.7467 24.039 78.6104 25.7122 70.3813 28.9859C70.7322 29.4725 70.8692 30.1 70.8692 30.7957C70.4498 40.8988 71.8449 50.8609 77.3566 59.7091L77.2881 59.7774L77.2838 59.7731Z" fill="#FFD04E"/>
<path d="M111.253 59.564C106.926 66.4616 100.721 77.0512 98.2778 84.9903C105.112 81.1573 116.76 77.1878 124.086 76.3512C134.549 75.2372 146.197 77.047 156.66 82.4122C157.216 82.6896 157.845 82.6214 158.265 82.8988C157.845 75.4464 156.104 67.9896 152.826 60.7464C148.919 52.1073 143.27 44.7915 136.436 39.0122C136.158 39.4988 135.67 39.9896 134.973 40.2671C125.417 44.6549 116.91 50.5067 111.257 59.564H111.253Z" fill="#F8B019"/>
<path d="M126.667 88.6141C118.575 88.0592 106.439 87.7092 98.3464 89.2415C104.902 93.4202 113.692 101.713 117.736 107.702C123.526 116.341 127.291 127.349 127.36 139.053C127.36 139.68 127.711 140.167 127.711 140.653C134.057 136.82 139.847 131.737 144.661 125.467C150.451 117.942 154.285 109.512 156.241 100.873C155.684 100.873 155.055 100.663 154.499 100.177C146.27 93.9068 137.202 89.2415 126.667 88.5415V88.6098V88.6141Z" fill="#F0A020"/>
<path d="M111.321 116.2C107.414 109.302 101.209 99.0628 95.5564 93.2793C95.5564 100.804 93.3226 112.435 90.464 118.915C86.3473 128.181 79.0255 137.029 69.1917 143.159C68.6354 143.509 68.4257 144.063 68.0063 144.273C74.7034 147.478 82.0937 149.565 89.9762 150.334C99.4633 151.17 108.6 149.984 116.97 147.06C116.692 146.573 116.55 145.946 116.619 145.25C117.458 135.22 116.619 125.326 111.458 116.268L111.317 116.2H111.321Z" fill="#F0A020"/>
<path d="M82.3076 117.318C85.654 109.934 90.3269 98.6487 91.722 90.5688C85.5128 95.2341 74.5621 100.599 67.5184 102.341C57.3337 104.778 45.6855 104.432 34.6664 100.39C34.0373 100.181 33.481 100.39 32.9932 100.113C34.3882 107.429 37.1098 114.604 41.295 121.36C46.3188 129.44 52.8747 135.992 60.3378 140.798C60.5474 140.239 60.9668 139.752 61.5916 139.407C70.3812 133.905 77.9812 127.076 82.376 117.391L82.3076 117.323V117.318Z" fill="#F0A020"/>
<path d="M62.8455 89.7281C70.9376 89.1006 83.0052 87.7092 90.7464 84.9902C83.7027 81.8573 73.7277 74.8872 68.845 69.5262C61.8698 61.8646 56.5678 51.4842 54.8261 39.9171C54.7576 39.2896 54.2698 38.8714 54.2698 38.3848C48.5484 43.1226 43.5288 48.9744 39.6903 55.872C35.0173 64.161 32.4369 73.0092 31.8079 81.9256C32.3642 81.9256 32.9932 81.9256 33.6223 82.3439C42.6216 87.3592 52.3142 90.6329 62.8498 89.7964V89.7281H62.8455Z" fill="#F8B019"/>
<path d="M114.599 47.1646C117.389 48.5561 119.413 47.3737 123.111 49.4652C127.296 51.7658 131.481 55.3853 133.642 60.264C134.408 62.0737 134.896 63.8152 135.037 65.3475C135.178 67.089 139.92 63.7469 140.964 60.8189C142.217 57.4042 140.407 54.0622 139.29 52.039C135.247 44.7231 127.574 42.3542 125.691 41.7994C121.857 40.7536 114.881 39.917 113.486 42.6359C112.789 44.0274 113.208 46.4689 114.603 47.1646H114.599Z" fill="#F8FBF4"/>
<path d="M95 24.7306C111.783 24.7306 127.565 31.2568 139.432 43.1141C151.302 54.9714 157.837 70.7342 157.837 87.5001C157.837 104.266 151.298 120.029 139.432 131.886C127.561 143.739 111.783 150.27 95 150.27C78.2167 150.27 62.4347 143.743 50.5682 131.886C38.6975 120.029 32.1631 104.266 32.1631 87.5001C32.1631 70.7342 38.7018 54.9714 50.5682 43.1141C62.439 31.261 78.2167 24.7306 95 24.7306ZM95 21.3159C58.4036 21.3159 28.7354 50.9464 28.7354 87.5001C28.7354 124.054 58.4036 153.684 95 153.684C131.596 153.684 161.265 124.054 161.265 87.5001C161.265 50.9464 131.596 21.3159 95 21.3159Z" fill="#DF8C26"/>
<path d="M61.9127 91.8067C60.4492 90.6926 53.7521 86.7189 52.6352 79.1981C52.2158 76.7609 52.5668 70.35 55.4253 67.0762C60.8643 60.8743 70.0733 61.8518 72.5852 62.1975C79.5604 63.175 85.56 68.5359 86.5357 69.3042C88.3501 70.7 89.6039 72.0231 90.4427 73.0646C90.999 71.3231 91.9789 68.8859 93.7206 66.167C95.4622 63.4481 98.3251 58.992 103.905 56.4823C105.578 55.7183 112.134 52.7219 118.69 55.5048C125.597 58.5012 129.153 66.4402 127.899 73.3378C126.782 79.3304 122.387 82.95 120.992 83.9957L117.085 87.4103C119.319 88.2469 122.456 89.5018 125.944 91.4524C130.548 94.0987 132.012 95.0762 134.455 97.3725C138.011 100.715 138.781 108.099 135.084 113.327C131.109 118.97 123.855 119.248 122.251 119.248C115.066 119.525 110.602 116.81 108.788 115.696L101.184 110.818C100.139 113.327 98.3251 117.019 95.1841 120.848C92.1843 124.54 90.1602 127.05 86.3945 128.373C79.9798 130.601 73.9803 127.537 73.2827 127.118C66.5172 123.494 65.1906 116.669 65.0537 115.833C63.6586 107.821 69.4485 102.247 70.0048 101.76L75.2341 96.7451C75.2341 96.7451 67.2832 95.9768 61.9127 91.7981V91.8067Z" fill="white" stroke="#C06228" stroke-width="4" stroke-miterlimit="10"/>
<g clip-path="url(#clip1_171_186)">
<path d="M95 175C147.468 175 190 135.826 190 87.5C190 39.1744 147.468 0 95 0C42.5318 0 0 39.1744 0 87.5C0 135.826 42.5318 175 95 175Z" fill="#FBFADA"/>
<path d="M95 153.684C131.597 153.684 161.265 124.053 161.265 87.5001C161.265 50.9476 131.597 21.3159 95 21.3159C58.403 21.3159 28.7354 50.9476 28.7354 87.5001C28.7354 124.053 58.403 153.684 95 153.684Z" fill="url(#paint1_linear_171_186)"/>
<path d="M77.2838 59.7731C81.469 66.6024 88.166 76.5646 94.0928 82.1347C93.7419 74.5414 95.4879 62.7695 98.0683 56.0811C101.766 46.5372 108.672 37.339 118.228 30.7231C118.784 30.3731 118.925 29.8183 119.413 29.5408C112.579 26.6128 105.116 24.803 97.2338 24.4573C87.7467 24.039 78.6104 25.7122 70.3813 28.9859C70.7322 29.4725 70.8692 30.1 70.8692 30.7957C70.4498 40.8988 71.8449 50.8609 77.3566 59.7091L77.2881 59.7774L77.2838 59.7731Z" fill="#FFD04E"/>
<path d="M111.253 59.564C106.926 66.4616 100.721 77.0512 98.2778 84.9903C105.112 81.1573 116.76 77.1878 124.086 76.3512C134.549 75.2372 146.197 77.047 156.66 82.4122C157.216 82.6896 157.845 82.6214 158.265 82.8988C157.845 75.4464 156.104 67.9896 152.826 60.7464C148.919 52.1073 143.27 44.7915 136.436 39.0122C136.158 39.4988 135.67 39.9896 134.973 40.2671C125.417 44.6549 116.91 50.5067 111.257 59.564H111.253Z" fill="#F8B019"/>
<path d="M126.667 88.6141C118.575 88.0592 106.439 87.7092 98.3464 89.2415C104.902 93.4202 113.692 101.713 117.736 107.702C123.526 116.341 127.291 127.349 127.36 139.053C127.36 139.68 127.711 140.167 127.711 140.653C134.057 136.82 139.847 131.737 144.661 125.467C150.451 117.942 154.285 109.512 156.241 100.873C155.684 100.873 155.055 100.663 154.499 100.177C146.27 93.9068 137.202 89.2415 126.667 88.5415V88.6098V88.6141Z" fill="#F0A020"/>
<path d="M111.321 116.2C107.414 109.302 101.209 99.0628 95.5564 93.2793C95.5564 100.804 93.3226 112.435 90.464 118.915C86.3473 128.181 79.0255 137.029 69.1917 143.159C68.6354 143.509 68.4257 144.063 68.0063 144.273C74.7034 147.478 82.0937 149.565 89.9762 150.334C99.4633 151.17 108.6 149.984 116.97 147.06C116.692 146.573 116.55 145.946 116.619 145.25C117.458 135.22 116.619 125.326 111.458 116.268L111.317 116.2H111.321Z" fill="#F0A020"/>
<path d="M82.3076 117.318C85.654 109.934 90.3269 98.6487 91.722 90.5688C85.5128 95.2341 74.5621 100.599 67.5184 102.341C57.3337 104.778 45.6855 104.432 34.6664 100.39C34.0373 100.181 33.481 100.39 32.9932 100.113C34.3882 107.429 37.1098 114.604 41.295 121.36C46.3188 129.44 52.8747 135.992 60.3378 140.798C60.5474 140.239 60.9668 139.752 61.5916 139.407C70.3812 133.905 77.9812 127.076 82.376 117.391L82.3076 117.323V117.318Z" fill="#F0A020"/>
<path d="M62.8455 89.7281C70.9376 89.1006 83.0052 87.7092 90.7464 84.9902C83.7027 81.8573 73.7277 74.8872 68.845 69.5262C61.8698 61.8646 56.5678 51.4842 54.8261 39.9171C54.7576 39.2896 54.2698 38.8714 54.2698 38.3848C48.5484 43.1226 43.5288 48.9744 39.6903 55.872C35.0173 64.161 32.4369 73.0092 31.8079 81.9256C32.3642 81.9256 32.9932 81.9256 33.6223 82.3439C42.6216 87.3592 52.3142 90.6329 62.8498 89.7964V89.7281H62.8455Z" fill="#F8B019"/>
<path d="M114.599 47.1646C117.389 48.5561 119.413 47.3737 123.111 49.4652C127.296 51.7658 131.481 55.3853 133.642 60.264C134.408 62.0737 134.896 63.8152 135.037 65.3475C135.178 67.089 139.92 63.7469 140.964 60.8189C142.217 57.4042 140.407 54.0622 139.29 52.039C135.247 44.7231 127.574 42.3542 125.691 41.7994C121.857 40.7536 114.881 39.917 113.486 42.6359C112.789 44.0274 113.208 46.4689 114.603 47.1646H114.599Z" fill="#F8FBF4"/>
<path d="M95 24.7306C111.783 24.7306 127.565 31.2568 139.432 43.1141C151.302 54.9714 157.837 70.7342 157.837 87.5001C157.837 104.266 151.298 120.029 139.432 131.886C127.561 143.739 111.783 150.27 95 150.27C78.2167 150.27 62.4347 143.743 50.5682 131.886C38.6975 120.029 32.1631 104.266 32.1631 87.5001C32.1631 70.7342 38.7018 54.9714 50.5682 43.1141C62.439 31.261 78.2167 24.7306 95 24.7306ZM95 21.3159C58.4036 21.3159 28.7354 50.9464 28.7354 87.5001C28.7354 124.054 58.4036 153.684 95 153.684C131.596 153.684 161.265 124.054 161.265 87.5001C161.265 50.9464 131.596 21.3159 95 21.3159Z" fill="#DF8C26"/>
<path d="M61.9127 91.8069C60.4492 90.6929 53.7521 86.7191 52.6352 79.1984C52.2158 76.7612 52.5668 70.3502 55.4253 67.0764C60.8643 60.8746 70.0733 61.852 72.5852 62.1978C79.5604 63.1752 85.56 68.5362 86.5357 69.3045C88.3501 70.7002 89.6039 72.0234 90.4427 73.0648C90.999 71.3234 91.9789 68.8862 93.7206 66.1673C95.4622 63.4484 98.3251 58.9923 103.905 56.4825C105.578 55.7185 112.134 52.7222 118.69 55.5051C125.597 58.5014 129.153 66.4404 127.899 73.338C126.782 79.3307 122.387 82.9502 120.992 83.9959L117.085 87.4106C119.319 88.2472 122.456 89.502 125.944 91.4526C130.548 94.099 132.012 95.0764 134.455 97.3728C138.011 100.715 138.781 108.099 135.084 113.328C131.109 118.97 123.855 119.248 122.251 119.248C115.066 119.525 110.602 116.811 108.788 115.697L101.184 110.818C100.14 113.328 98.3251 117.02 95.1841 120.848C92.1843 124.54 90.1602 127.05 86.3945 128.373C79.9798 130.601 73.9803 127.537 73.2827 127.119C66.5172 123.495 65.1906 116.67 65.0537 115.833C63.6586 107.822 69.4485 102.247 70.0048 101.761L75.2341 96.7453C75.2341 96.7453 67.2832 95.977 61.9127 91.7984V91.8069Z" fill="white"/>
<path d="M81.5588 130.034C76.6504 130.034 72.8889 127.891 72.8419 127.861C65.7425 124.062 64.3432 116.798 64.2063 115.982C62.67 107.168 69.3714 101.189 69.4398 101.129L73.3811 97.3513C70.668 96.8733 65.3916 95.597 61.3905 92.4855C61.2493 92.3788 61.061 92.2464 60.8342 92.0885C58.6518 90.5477 52.8448 86.4629 51.7878 79.3263C51.3342 76.6885 51.7493 69.9873 54.779 66.5172C60.1795 60.3666 69.1103 60.8574 72.7007 61.3568C77.1126 61.9714 81.8326 64.3361 86.741 68.3739C86.8779 68.4891 86.9849 68.5745 87.0619 68.6342C88.2002 69.5092 89.2272 70.4355 90.1173 71.3916C90.8576 69.441 91.8205 67.5373 92.993 65.7105C94.7689 62.9446 97.7387 58.3178 103.546 55.7099C110.624 52.4702 115.866 53.3879 119.02 54.7281C125.961 57.7373 130.133 65.8086 128.734 73.5001C127.612 79.5269 123.342 83.3044 121.527 84.6702L118.711 87.1288C120.847 87.9653 123.47 89.1007 126.359 90.7141C130.925 93.3391 132.521 94.3891 135.037 96.758C138.679 100.181 139.877 108.031 135.777 113.823C131.669 119.653 124.382 120.106 122.242 120.106C114.792 120.396 110.097 117.51 108.33 116.426L101.564 112.085C100.058 115.466 98.1367 118.595 95.843 121.395L95.7959 121.45C92.809 125.129 90.6479 127.784 86.6725 129.184C84.9009 129.799 83.1635 130.029 81.5502 130.029L81.5588 130.034ZM68.7295 62.791C64.8268 62.791 59.5675 63.6574 56.0714 67.6397C53.538 70.5379 53.0459 76.5221 53.4824 79.0574C54.4367 85.4897 59.8029 89.2714 61.827 90.6928C62.0752 90.8678 62.2849 91.0129 62.4347 91.1324H62.4432C67.557 95.119 75.2425 95.9001 75.3196 95.9086L77.1725 96.0879L70.5995 102.388C70.5097 102.469 64.523 107.809 65.8966 115.701C66.0207 116.439 67.2745 122.944 73.6892 126.38C73.7833 126.435 79.7016 129.807 86.1162 127.579C89.6338 126.346 91.5594 123.973 94.4736 120.383L94.5207 120.323C96.9214 117.391 98.8984 114.087 100.396 110.502L100.79 109.559L109.254 114.988C110.885 115.991 115.25 118.671 122.22 118.407C124.18 118.407 130.753 118.006 134.386 112.849C137.981 107.766 137.001 100.949 133.873 98.0086C131.464 95.7379 130.013 94.7861 125.524 92.2038C122.113 90.2958 119.067 89.0751 116.794 88.2214L115.455 87.7221L120.487 83.3257C122.126 82.0964 126.046 78.6562 127.065 73.1928C128.327 66.2611 124.583 58.9964 118.356 56.2989C115.528 55.0952 110.782 54.2885 104.269 57.2678C98.9198 59.6708 96.1211 64.0288 94.4522 66.6324C93.0743 68.7794 92.0045 71.033 91.2642 73.3336L90.7763 74.8531L89.7793 73.6068C88.7693 72.3477 87.5027 71.1312 86.0178 69.9873C85.9279 69.9147 85.8081 69.8208 85.6583 69.6928C80.9982 65.8556 76.5648 63.6233 72.4696 63.0471C71.5452 62.919 70.2401 62.791 68.7338 62.791H68.7295Z" fill="#C06228"/>
</g>
</g>
<defs>
<linearGradient id="paint0_linear_171_186" x1="94.4608" y1="23.3391" x2="95.5081" y2="148.596" gradientUnits="userSpaceOnUse">
<stop offset="0.1" stop-color="#FED777"/>
<stop offset="0.9" stop-color="#E8952B"/>
</linearGradient>
<linearGradient id="paint1_linear_171_186" x1="94.4608" y1="23.3391" x2="95.5081" y2="148.596" gradientUnits="userSpaceOnUse">
<stop offset="0.1" stop-color="#FED777"/>
<stop offset="0.9" stop-color="#E8952B"/>
</linearGradient>
<clipPath id="clip0_171_186">
<rect width="190" height="175" fill="white"/>
</clipPath>
<clipPath id="clip1_171_186">
<rect width="190" height="175" fill="white"/>
</clipPath>
</defs>
</svg>
