<svg width="200" height="185" viewBox="0 0 200 185" fill="none" xmlns="http://www.w3.org/2000/svg">
<g clip-path="url(#clip0_171_239)">
<path d="M100 185C155.23 185 200 143.587 200 92.5C200 41.4129 155.23 0 100 0C44.7703 0 0 41.4129 0 92.5C0 143.587 44.7703 185 100 185Z" fill="#FBFADA"/>
<path d="M100 162.466C138.523 162.466 169.752 131.141 169.752 92.5C169.752 53.8588 138.523 22.5339 100 22.5339C61.477 22.5339 30.2478 53.8588 30.2478 92.5C30.2478 131.141 61.477 162.466 100 162.466Z" fill="url(#paint0_linear_171_239)"/>
<path d="M81.3515 63.1888C85.7569 70.4084 92.8064 80.9398 99.0452 86.8282C98.6758 78.801 100.514 66.3564 103.23 59.2858C107.122 49.1965 114.392 39.4728 124.451 32.4788C125.036 32.1088 125.185 31.5223 125.698 31.229C118.505 28.1336 110.649 26.2204 102.351 25.8549C92.365 25.4127 82.7479 27.1815 74.0857 30.6424C74.4551 31.1568 74.5992 31.8201 74.5992 32.5556C74.1578 43.2359 75.6262 53.7674 81.428 63.1212L81.356 63.1934L81.3515 63.1888Z" fill="#FFD04E"/>
<path d="M117.108 62.9677C112.554 70.2594 106.023 81.4541 103.45 89.8468C110.644 85.7949 122.905 81.5985 130.617 80.7141C141.631 79.5365 153.892 81.4496 164.905 87.1215C165.491 87.4147 166.153 87.3426 166.595 87.6358C166.153 79.7576 164.32 71.8747 160.869 64.2176C156.757 55.0849 150.811 47.351 143.617 41.2415C143.324 41.7558 142.811 42.2747 142.077 42.568C132.018 47.2066 123.063 53.3928 117.113 62.9677H117.108Z" fill="#F8B019"/>
<path d="M133.333 93.6777C124.815 93.0911 112.04 92.7211 103.522 94.341C110.423 98.7585 119.676 107.526 123.932 113.856C130.027 122.989 133.991 134.626 134.063 146.998C134.063 147.662 134.432 148.176 134.432 148.69C141.113 144.638 147.207 139.264 152.275 132.636C158.369 124.681 162.405 115.769 164.464 106.637C163.878 106.637 163.216 106.416 162.631 105.901C153.968 99.2728 144.423 94.341 133.333 93.601V93.6732V93.6777Z" fill="#F0A020"/>
<path d="M117.18 122.84C113.068 115.548 106.536 104.724 100.586 98.6096C100.586 106.565 98.2343 118.86 95.2253 125.71C90.892 135.506 83.1848 144.86 72.8334 151.339C72.2479 151.709 72.0271 152.296 71.5857 152.517C78.6352 155.905 86.4145 158.112 94.7118 158.924C104.698 159.809 114.315 158.554 123.126 155.463C122.833 154.949 122.685 154.286 122.757 153.55C123.64 142.946 122.757 132.487 117.324 122.912L117.176 122.84H117.18Z" fill="#F0A020"/>
<path d="M86.6396 124.022C90.1622 116.216 95.0811 104.286 96.5496 95.7444C90.0135 100.676 78.4865 106.348 71.0721 108.189C60.3514 110.765 48.0901 110.4 36.491 106.127C35.8288 105.906 35.2432 106.127 34.7297 105.834C36.1982 113.568 39.0631 121.153 43.4685 128.295C48.7568 136.837 55.6577 143.763 63.5135 148.844C63.7342 148.253 64.1757 147.738 64.8333 147.373C74.0856 141.557 82.0856 134.337 86.7117 124.099L86.6396 124.027V124.022Z" fill="#F0A020"/>
<path d="M66.1531 94.8553C74.6711 94.192 87.3738 92.721 95.5225 89.8468C88.1081 86.5348 77.6081 79.1664 72.4684 73.4991C65.1261 65.3997 59.545 54.426 57.7117 42.198C57.6396 41.5347 57.1261 41.0925 57.1261 40.5781C51.1036 45.5867 45.8198 51.7729 41.7792 59.0646C36.8603 67.8273 34.1441 77.181 33.4819 86.607C34.0675 86.607 34.7297 86.607 35.3918 87.0492C44.8648 92.351 55.0675 95.8119 66.1576 94.9275V94.8553H66.1531Z" fill="#F8B019"/>
<path d="M120.631 49.8597C123.568 51.3307 125.698 50.0808 129.59 52.2918C133.995 54.7239 138.401 58.5502 140.676 63.7077C141.482 65.6208 141.995 67.4618 142.144 69.0817C142.293 70.9227 147.284 67.3896 148.383 64.2943C149.703 60.6845 147.797 57.1514 146.622 55.0127C142.365 47.2788 134.288 44.7745 132.306 44.1879C128.27 43.0824 120.928 42.198 119.459 45.0723C118.725 46.5433 119.167 49.1242 120.635 49.8597H120.631Z" fill="#F8FBF4"/>
<path d="M100 26.1437C117.667 26.1437 134.279 33.0428 146.77 45.5777C159.266 58.1126 166.144 74.7761 166.144 92.5C166.144 110.224 159.261 126.887 146.77 139.422C134.275 151.953 117.667 158.856 100 158.856C82.3334 158.856 65.7208 151.957 53.2298 139.422C40.7343 126.887 33.8559 110.224 33.8559 92.5C33.8559 74.7761 40.7388 58.1126 53.2298 45.5777C65.7253 33.0474 82.3334 26.1437 100 26.1437ZM100 22.5339C61.4775 22.5339 30.2478 53.8576 30.2478 92.5C30.2478 131.142 61.4775 162.466 100 162.466C138.523 162.466 169.752 131.142 169.752 92.5C169.752 53.8576 138.523 22.5339 100 22.5339Z" fill="#DF8C26"/>
<path d="M68.1532 70.5844C65.973 69.3571 63.8559 68.2471 61.8289 67.2544C59.4009 66.0677 56.5721 67.4033 56.1442 69.9617C55.428 74.2122 54.919 79.1125 54.8919 84.5632C54.8739 88.8137 55.1532 92.7438 55.5901 96.2814C55.919 98.9436 58.7298 100.672 61.2523 99.7828C65.1757 98.3976 69.4415 96.6423 73.9009 94.3998C77.8784 92.4009 81.4325 90.3072 84.5631 88.2542C86.8154 86.7787 86.8739 83.5209 84.6847 81.7611C82.7568 80.2134 80.6532 78.6251 78.3874 77.0323C82.1982 73.2376 86.9865 70.4942 92.3649 69.8309C104.865 68.1343 118.833 76.4457 121.437 88.9806C124.703 102.982 112.496 118.31 98.2298 118.436C93.8649 118.621 88.3469 117.34 84.5496 115.386C83.1036 114.696 77.3064 117.534 74.6847 123.454C72.5901 128.178 72.7208 134.418 75.2073 135.916C76.4685 136.508 78.8694 137.365 81.3289 137.992C109.581 146.159 138.05 126.63 139.405 96.9943C139.914 58.045 90.3154 41.7154 68.1487 70.5709L68.1532 70.5844Z" fill="white"/>
<path d="M94.4234 140.781C89.9864 140.781 85.4999 140.153 81.081 138.876C78.4684 138.209 76.054 137.324 74.8288 136.751L74.7477 136.706C71.6261 134.824 71.7072 127.975 73.8648 123.102C75.7792 118.779 79.4414 115.806 82.2252 114.772C83.3873 114.344 84.2972 114.28 84.9414 114.587C88.7387 116.541 94.0585 117.728 98.1981 117.547C104.707 117.489 111.261 114.028 115.77 108.288C120.302 102.513 122.049 95.5548 120.568 89.1971C118.171 77.6459 105.054 69.0366 92.4954 70.7332C87.9594 71.2927 83.5945 73.427 79.8063 76.933C81.6801 78.2731 83.509 79.6584 85.2567 81.0616C86.545 82.0994 87.2702 83.6742 87.1936 85.276C87.1216 86.8102 86.3423 88.1729 85.063 89.0121C81.6216 91.2682 78.0045 93.3529 74.3108 95.2119C70.2072 97.274 65.9144 99.1014 61.554 100.636C60.09 101.15 58.4729 100.965 57.1216 100.126C55.7747 99.2909 54.8918 97.9282 54.6981 96.3896C54.2117 92.464 53.9729 88.4842 53.9909 84.5541C54.0135 79.6132 54.4369 74.6498 55.2522 69.8037C55.4954 68.3463 56.3918 67.1235 57.7117 66.4466C59.1171 65.7247 60.7612 65.7202 62.2207 66.4331C64.1126 67.3581 66.027 68.3598 67.9189 69.4066C78.3693 56.3393 95.7297 51.6376 112.374 57.4313C120.428 60.2334 127.302 65.1832 132.257 71.744C137.649 78.8777 140.432 87.6134 140.311 97.0077C139.667 111.158 132.788 123.932 121.446 132.077C113.477 137.802 104.063 140.767 94.4279 140.767L94.4234 140.781ZM75.6396 135.14C76.7702 135.664 79.0765 136.503 81.554 137.139C95.0585 141.042 109.203 138.664 120.392 130.628C131.284 122.804 137.887 110.535 138.504 96.9716C138.775 76.0486 124.878 63.7123 111.779 59.1549C95.6216 53.5327 78.7792 58.2345 68.8648 71.1393L68.3873 71.7575L67.7072 71.374C65.6261 70.2008 63.5135 69.0908 61.4279 68.071C60.4819 67.6063 59.4234 67.6063 58.5315 68.071C57.7252 68.4862 57.1756 69.2352 57.027 70.1241C56.2252 74.8754 55.8108 79.7396 55.7882 84.5812C55.7702 88.4301 56.0045 92.3376 56.4819 96.1865C56.6036 97.1792 57.1801 98.0591 58.063 98.6096C58.9504 99.1601 60.0045 99.2864 60.9504 98.948C65.2387 97.4364 69.4594 95.6406 73.4954 93.6101C77.1261 91.7871 80.6846 89.7341 84.0675 87.5186C84.8603 86.9997 85.3378 86.1559 85.3828 85.2084C85.4324 84.166 84.9729 83.1734 84.1171 82.4875C82.1216 80.8857 80.018 79.3064 77.8648 77.7948L76.9819 77.1766L77.7432 76.4186C81.9909 72.1862 87.0044 69.6097 92.2477 68.9644C98.527 68.1116 105.396 69.7045 111.09 73.3368C117.04 77.136 121.027 82.6364 122.311 88.8271C123.914 95.6992 122.04 103.212 117.171 109.421C112.329 115.589 105.252 119.307 98.2297 119.37C93.8378 119.56 88.1576 118.292 84.1306 116.221C83.2837 115.918 77.9684 118.283 75.4999 123.851C73.4369 128.507 73.8558 134.012 75.6306 135.154L75.6396 135.14Z" fill="#C06228"/>
</g>
<defs>
<linearGradient id="paint0_linear_171_239" x1="99.4325" y1="24.6682" x2="100.544" y2="157.088" gradientUnits="userSpaceOnUse">
<stop offset="0.1" stop-color="#FED777"/>
<stop offset="0.9" stop-color="#E8952B"/>
</linearGradient>
<clipPath id="clip0_171_239">
<rect width="200" height="185" fill="white"/>
</clipPath>
</defs>
</svg>
