<svg width="672" height="845" viewBox="0 0 672 845" fill="none" xmlns="http://www.w3.org/2000/svg">
<g filter="url(#filter0_d_423_354)">
<g filter="url(#filter1_d_423_354)">
<path d="M42.983 447.794L74.4197 819.138H610.851L632.464 447.794H42.983Z" fill="url(#paint0_radial_423_354)"/>
</g>
<path d="M627.686 836.999H57.9869L23.5138 429.932H651.352L627.641 836.999H627.686ZM90.8524 801.276H594.016L613.53 465.655H62.4077L90.8078 801.276H90.8524Z" fill="#F3E8DC"/>
<path d="M667.205 339.015H4V437.567H667.205V339.015Z" fill="#F3E8DC"/>
<path d="M553.917 101.721C499.216 2.90124 199.318 -22.4177 111.929 101.721C82.9934 142.803 65.221 217.465 60.711 236.309C51.7801 273.774 48.2078 305.88 46.6449 328.743H624.649C621.568 313.203 617.147 292.618 611.164 268.46C607.725 254.528 600.581 225.86 591.069 196.12C579.414 158.343 574.726 146.688 564.277 123.825L553.917 101.721Z" fill="url(#paint1_radial_423_354)"/>
<path d="M646.396 346.606H27.5328L28.8278 327.539C31.0158 295.477 35.8831 263.371 43.3404 232.157C58.7908 167.677 76.9204 120.432 97.3274 91.4072C149.662 17.0579 264.915 -4.24224 355.295 0.669728C457.464 6.1622 541.548 42.4661 569.546 93.0593L570.082 94.131L580.442 116.235C591.605 140.616 596.562 153.343 608.127 190.852C618.085 221.931 625.632 252.609 628.489 264.174C633.669 285.028 638.269 305.569 642.154 325.261L646.396 346.606ZM66.1141 310.883H602.724C600 298.379 597.053 285.653 593.838 272.748C591.069 261.495 583.701 231.666 574.056 201.569C562.401 163.792 557.891 152.896 548.023 131.239L538.02 109.849C515.827 70.5982 441.745 41.0817 353.375 36.3037C230.084 29.6949 155.378 71.0447 126.576 111.948C114.341 129.318 95.9878 165.667 78.1707 240.15C72.6336 263.46 68.5701 287.127 66.1141 310.838V310.883Z" fill="#F3E8DC"/>
<path d="M390.438 388.266C393.742 403.493 400.663 444.664 387.446 478.824C382.623 491.328 364.806 521.067 339.889 522.139C314.793 523.211 293.538 492.846 286.84 478.824C270.809 445.423 274.024 405.145 275.721 388.266H390.438Z" fill="url(#paint2_linear_423_354)" stroke="#F3E8DC" stroke-miterlimit="10"/>
</g>
<defs>
<filter id="filter0_d_423_354" x="0" y="0" width="671.205" height="844.999" filterUnits="userSpaceOnUse" color-interpolation-filters="sRGB">
<feFlood flood-opacity="0" result="BackgroundImageFix"/>
<feColorMatrix in="SourceAlpha" type="matrix" values="0 0 0 0 0 0 0 0 0 0 0 0 0 0 0 0 0 0 127 0" result="hardAlpha"/>
<feOffset dy="4"/>
<feGaussianBlur stdDeviation="2"/>
<feComposite in2="hardAlpha" operator="out"/>
<feColorMatrix type="matrix" values="0 0 0 0 0 0 0 0 0 0 0 0 0 0 0 0 0 0 0.25 0"/>
<feBlend mode="normal" in2="BackgroundImageFix" result="effect1_dropShadow_423_354"/>
<feBlend mode="normal" in="SourceGraphic" in2="effect1_dropShadow_423_354" result="shape"/>
</filter>
<filter id="filter1_d_423_354" x="38.983" y="447.794" width="597.481" height="379.345" filterUnits="userSpaceOnUse" color-interpolation-filters="sRGB">
<feFlood flood-opacity="0" result="BackgroundImageFix"/>
<feColorMatrix in="SourceAlpha" type="matrix" values="0 0 0 0 0 0 0 0 0 0 0 0 0 0 0 0 0 0 127 0" result="hardAlpha"/>
<feOffset dy="4"/>
<feGaussianBlur stdDeviation="2"/>
<feComposite in2="hardAlpha" operator="out"/>
<feColorMatrix type="matrix" values="0 0 0 0 0 0 0 0 0 0 0 0 0 0 0 0 0 0 0.25 0"/>
<feBlend mode="normal" in2="BackgroundImageFix" result="effect1_dropShadow_423_354"/>
<feBlend mode="normal" in="SourceGraphic" in2="effect1_dropShadow_423_354" result="shape"/>
</filter>
<radialGradient id="paint0_radial_423_354" cx="0" cy="0" r="1" gradientUnits="userSpaceOnUse" gradientTransform="translate(337.723 633.466) rotate(90) scale(185.672 294.74)">
<stop stop-color="#975036"/>
<stop offset="0.75" stop-color="#7A3F2A"/>
<stop offset="1" stop-color="#623426"/>
</radialGradient>
<radialGradient id="paint1_radial_423_354" cx="0" cy="0" r="1" gradientUnits="userSpaceOnUse" gradientTransform="translate(335.647 173.293) rotate(90) scale(155.45 289.002)">
<stop stop-color="#975036"/>
<stop offset="0.75" stop-color="#7A3F2A"/>
<stop offset="1" stop-color="#623426"/>
</radialGradient>
<linearGradient id="paint2_linear_423_354" x1="334.743" y1="388.266" x2="334.743" y2="522.167" gradientUnits="userSpaceOnUse">
<stop stop-color="#503697"/>
<stop offset="0.634615" stop-color="#352464"/>
<stop offset="1" stop-color="#1A1231"/>
</linearGradient>
</defs>
</svg>
