<svg width="753" height="1090" viewBox="0 0 753 1090" fill="none" xmlns="http://www.w3.org/2000/svg">
<g filter="url(#filter0_d_425_354)">
<g filter="url(#filter1_d_425_354)">
<path d="M49.9078 660.991L82.5721 1062.2H665.092L700.771 660.991H49.9078Z" fill="url(#paint0_radial_425_354)"/>
</g>
<path d="M683.179 1081.97H64.3377L28.4614 641.229H722.366L683.179 1081.97ZM100.807 1042.44H647.006L679.176 680.761H71.3548L100.807 1042.44Z" fill="#F3E8DC"/>
<path d="M13.1417 594.331L156.301 520.553H599.17L739.809 594.331" fill="#623426"/>
<path d="M22.1853 611.921L4.09888 576.737L151.508 500.784H604.063L749.001 576.836L730.618 611.822L594.279 540.317H161.095L22.1853 611.921Z" fill="#F3E8DC"/>
<path d="M49.0187 306.138L160.156 500.047H600.456L703.638 306.83" fill="url(#paint1_radial_425_354)"/>
<path d="M612.316 519.812H148.692L31.8716 315.97L66.1665 296.303L171.621 480.279H588.596L686.194 297.538L721.082 316.119L612.316 519.812Z" fill="#F3E8DC"/>
<path d="M56.6285 238.19C56.6285 220.154 57.6168 194.457 62.3114 167.575C75.6044 90.8313 94.5803 78.6255 116.126 63.603C182.196 17.5471 228.597 26.5903 377.291 25.1078C513.088 23.7735 575.352 23.9712 636.134 53.2256C677.545 73.1897 688.269 121.074 692.419 151.811C698.152 194.062 696.027 212.84 696.472 238.141" fill="url(#paint2_radial_425_354)"/>
<path d="M671.763 238.583C671.665 232.159 671.714 226.13 671.763 220.002C671.912 202.114 672.06 185.213 667.958 155.119C662.226 112.522 648.291 86.4796 625.411 75.4598C570.361 48.9727 513.137 48.4786 377.538 49.8128C353.225 50.0599 331.482 50.0105 312.309 49.961C215.403 49.7634 179.181 49.714 130.259 83.8606L129.32 84.5029C111.135 97.1535 98.0394 106.295 86.6736 171.772C83.1651 191.983 81.3367 214.319 81.3367 238.187H31.9203C31.9203 211.503 33.9464 186.3 37.9491 163.322C51.7363 83.7123 72.7877 63.6493 101.054 43.9816L101.993 43.3393C163.714 0.297767 210.264 0.347138 312.408 0.59422C331.433 0.59422 353.028 0.643642 377.044 0.445977C507.405 -0.838844 579.207 -1.53063 646.858 30.9852C704.823 58.9054 713.916 126.358 716.93 148.546C721.476 182.149 721.328 201.619 721.18 220.447C721.18 226.13 721.081 231.763 721.18 237.743L671.763 238.632V238.583Z" fill="#F3E8DC"/>
<path d="M721.131 227.07H31.8219V316.02H721.131V227.07Z" fill="#F3E8DC"/>
<path d="M748.903 576.692H4V655.758H748.903V576.692Z" fill="#F3E8DC"/>
<path d="M319.771 639.298L367.853 595.614C372.449 591.413 381.542 591.512 385.989 595.812L431.106 639.347C434.071 642.213 433.972 646.167 430.859 648.934L384.161 690.444C379.614 694.496 370.917 694.496 366.371 690.444L319.87 649.082C316.658 646.216 316.609 642.164 319.87 639.298H319.821H319.771Z" fill="url(#paint3_linear_425_354)"/>
<path d="M435.059 229.639C438.716 246.49 446.375 292.051 431.748 329.855C426.411 343.691 406.694 376.602 379.12 377.788C351.348 378.974 327.825 345.371 320.413 329.855C302.672 292.891 306.23 248.318 308.108 229.639H435.059Z" fill="url(#paint4_linear_425_354)" stroke="#593522" stroke-miterlimit="10"/>
</g>
<defs>
<filter id="filter0_d_425_354" x="0" y="0" width="753.001" height="1089.97" filterUnits="userSpaceOnUse" color-interpolation-filters="sRGB">
<feFlood flood-opacity="0" result="BackgroundImageFix"/>
<feColorMatrix in="SourceAlpha" type="matrix" values="0 0 0 0 0 0 0 0 0 0 0 0 0 0 0 0 0 0 127 0" result="hardAlpha"/>
<feOffset dy="4"/>
<feGaussianBlur stdDeviation="2"/>
<feComposite in2="hardAlpha" operator="out"/>
<feColorMatrix type="matrix" values="0 0 0 0 0 0 0 0 0 0 0 0 0 0 0 0 0 0 0.25 0"/>
<feBlend mode="normal" in2="BackgroundImageFix" result="effect1_dropShadow_425_354"/>
<feBlend mode="normal" in="SourceGraphic" in2="effect1_dropShadow_425_354" result="shape"/>
</filter>
<filter id="filter1_d_425_354" x="45.9078" y="660.991" width="658.863" height="409.21" filterUnits="userSpaceOnUse" color-interpolation-filters="sRGB">
<feFlood flood-opacity="0" result="BackgroundImageFix"/>
<feColorMatrix in="SourceAlpha" type="matrix" values="0 0 0 0 0 0 0 0 0 0 0 0 0 0 0 0 0 0 127 0" result="hardAlpha"/>
<feOffset dy="4"/>
<feGaussianBlur stdDeviation="2"/>
<feComposite in2="hardAlpha" operator="out"/>
<feColorMatrix type="matrix" values="0 0 0 0 0 0 0 0 0 0 0 0 0 0 0 0 0 0 0.25 0"/>
<feBlend mode="normal" in2="BackgroundImageFix" result="effect1_dropShadow_425_354"/>
<feBlend mode="normal" in="SourceGraphic" in2="effect1_dropShadow_425_354" result="shape"/>
</filter>
<radialGradient id="paint0_radial_425_354" cx="0" cy="0" r="1" gradientUnits="userSpaceOnUse" gradientTransform="translate(375.339 861.596) rotate(90) scale(200.605 325.432)">
<stop stop-color="#975036"/>
<stop offset="0.5" stop-color="#7A3F2A"/>
<stop offset="1" stop-color="#623426"/>
</radialGradient>
<radialGradient id="paint1_radial_425_354" cx="0" cy="0" r="1" gradientUnits="userSpaceOnUse" gradientTransform="translate(376.328 403.092) scale(327.309 96.9546)">
<stop stop-color="#975036"/>
<stop offset="0.5" stop-color="#7A3F2A"/>
<stop offset="1" stop-color="#623426"/>
</radialGradient>
<radialGradient id="paint2_radial_425_354" cx="0" cy="0" r="1" gradientUnits="userSpaceOnUse" gradientTransform="translate(376.567 131.443) rotate(90) scale(106.748 319.939)">
<stop stop-color="#975036"/>
<stop offset="0.75" stop-color="#7A3F2A"/>
<stop offset="1" stop-color="#623426"/>
</radialGradient>
<linearGradient id="paint3_linear_425_354" x1="375.353" y1="592.524" x2="375.353" y2="693.483" gradientUnits="userSpaceOnUse">
<stop stop-color="#503697"/>
<stop offset="0.5" stop-color="#352464"/>
<stop offset="1" stop-color="#1A1231"/>
</linearGradient>
<linearGradient id="paint4_linear_425_354" x1="373.425" y1="229.639" x2="373.425" y2="377.819" gradientUnits="userSpaceOnUse">
<stop stop-color="#503697"/>
<stop offset="0.5" stop-color="#352464"/>
<stop offset="1" stop-color="#1A1231"/>
</linearGradient>
</defs>
</svg>
