<svg width="190" height="175" viewBox="0 0 190 175" fill="none" xmlns="http://www.w3.org/2000/svg">
<g clip-path="url(#clip0_171_185)">
<path d="M95 175C147.468 175 190 135.826 190 87.5C190 39.1744 147.468 0 95 0C42.5318 0 0 39.1744 0 87.5C0 135.826 42.5318 175 95 175Z" fill="#FBFADA"/>
<path d="M95 153.684C131.597 153.684 161.265 124.053 161.265 87.5001C161.265 50.9476 131.597 21.3159 95 21.3159C58.403 21.3159 28.7354 50.9476 28.7354 87.5001C28.7354 124.053 58.403 153.684 95 153.684Z" fill="url(#paint0_linear_171_185)"/>
<path d="M77.2838 59.7731C81.469 66.6024 88.166 76.5646 94.0928 82.1347C93.7419 74.5414 95.4879 62.7695 98.0683 56.0811C101.766 46.5372 108.672 37.339 118.228 30.7231C118.784 30.3731 118.925 29.8183 119.413 29.5408C112.579 26.6128 105.116 24.803 97.2338 24.4573C87.7467 24.039 78.6104 25.7122 70.3813 28.9859C70.7322 29.4725 70.8692 30.1 70.8692 30.7957C70.4498 40.8988 71.8449 50.8609 77.3566 59.7091L77.2881 59.7774L77.2838 59.7731Z" fill="#FFD04E"/>
<path d="M111.253 59.564C106.926 66.4616 100.721 77.0512 98.2778 84.9903C105.112 81.1573 116.76 77.1878 124.086 76.3512C134.549 75.2372 146.197 77.047 156.66 82.4122C157.216 82.6896 157.845 82.6214 158.265 82.8988C157.845 75.4464 156.104 67.9896 152.826 60.7464C148.919 52.1073 143.27 44.7915 136.436 39.0122C136.158 39.4988 135.67 39.9896 134.973 40.2671C125.417 44.6549 116.91 50.5067 111.257 59.564H111.253Z" fill="#F8B019"/>
<path d="M126.667 88.6141C118.575 88.0592 106.439 87.7092 98.3464 89.2415C104.902 93.4202 113.692 101.713 117.736 107.702C123.526 116.341 127.291 127.349 127.36 139.053C127.36 139.68 127.711 140.167 127.711 140.653C134.057 136.82 139.847 131.737 144.661 125.467C150.451 117.942 154.285 109.512 156.241 100.873C155.684 100.873 155.055 100.663 154.499 100.177C146.27 93.9068 137.202 89.2415 126.667 88.5415V88.6098V88.6141Z" fill="#F0A020"/>
<path d="M111.321 116.2C107.414 109.302 101.209 99.0628 95.5564 93.2793C95.5564 100.804 93.3226 112.435 90.464 118.915C86.3473 128.181 79.0255 137.029 69.1917 143.159C68.6354 143.509 68.4257 144.063 68.0063 144.273C74.7034 147.478 82.0937 149.565 89.9762 150.334C99.4633 151.17 108.6 149.984 116.97 147.06C116.692 146.573 116.55 145.946 116.619 145.25C117.458 135.22 116.619 125.326 111.458 116.268L111.317 116.2H111.321Z" fill="#F0A020"/>
<path d="M82.3076 117.318C85.654 109.934 90.3269 98.6487 91.722 90.5688C85.5128 95.2341 74.5621 100.599 67.5184 102.341C57.3337 104.778 45.6855 104.432 34.6664 100.39C34.0373 100.181 33.481 100.39 32.9932 100.113C34.3882 107.429 37.1098 114.604 41.295 121.36C46.3188 129.44 52.8747 135.992 60.3378 140.798C60.5474 140.239 60.9668 139.752 61.5916 139.407C70.3812 133.905 77.9812 127.076 82.376 117.391L82.3076 117.323V117.318Z" fill="#F0A020"/>
<path d="M62.8455 89.7281C70.9376 89.1006 83.0052 87.7092 90.7464 84.9902C83.7027 81.8573 73.7277 74.8872 68.845 69.5262C61.8698 61.8646 56.5678 51.4842 54.8261 39.9171C54.7576 39.2896 54.2698 38.8714 54.2698 38.3848C48.5484 43.1226 43.5288 48.9744 39.6903 55.872C35.0173 64.161 32.4369 73.0092 31.8079 81.9256C32.3642 81.9256 32.9932 81.9256 33.6223 82.3439C42.6216 87.3592 52.3142 90.6329 62.8498 89.7964V89.7281H62.8455Z" fill="#F8B019"/>
<path d="M114.599 47.1646C117.389 48.5561 119.413 47.3737 123.111 49.4652C127.296 51.7658 131.481 55.3853 133.642 60.264C134.408 62.0737 134.896 63.8152 135.037 65.3475C135.178 67.089 139.92 63.7469 140.964 60.8189C142.217 57.4042 140.407 54.0622 139.29 52.039C135.247 44.7231 127.574 42.3542 125.691 41.7994C121.857 40.7536 114.881 39.917 113.486 42.6359C112.789 44.0274 113.208 46.4689 114.603 47.1646H114.599Z" fill="#F8FBF4"/>
<path d="M95 24.7306C111.783 24.7306 127.565 31.2568 139.432 43.1141C151.302 54.9714 157.837 70.7342 157.837 87.5001C157.837 104.266 151.298 120.029 139.432 131.886C127.561 143.739 111.783 150.27 95 150.27C78.2167 150.27 62.4347 143.743 50.5682 131.886C38.6975 120.029 32.1631 104.266 32.1631 87.5001C32.1631 70.7342 38.7018 54.9714 50.5682 43.1141C62.439 31.261 78.2167 24.7306 95 24.7306ZM95 21.3159C58.4036 21.3159 28.7354 50.9464 28.7354 87.5001C28.7354 124.054 58.4036 153.684 95 153.684C131.596 153.684 161.265 124.054 161.265 87.5001C161.265 50.9464 131.596 21.3159 95 21.3159Z" fill="#DF8C26"/>
<path d="M90.3056 102.828C90.8962 102.682 91.1358 102.175 91.1658 102.115C96.7844 85.9123 102.407 69.7141 108.026 53.5117C108.193 53.2215 108.501 52.7904 109.019 52.5257C109.785 52.1373 110.598 52.3123 111.009 52.4147C116.075 53.6782 121.754 56.5593 121.754 56.5593C121.754 56.5593 123.932 57.6647 130.351 61.8989C130.702 62.1294 131.477 62.6586 131.802 63.6147C132.093 64.4769 131.887 65.2964 131.729 65.7489C127.903 72.8044 98.5775 126.85 96.0741 129.799C94.9358 131.139 93.7119 131.246 93.7119 131.246C92.441 131.246 91.4139 130.46 91.0802 130.175C89.0561 128.446 76.3766 118.091 58.9513 103.809C58.6475 103.51 58.134 102.917 58.0612 102.102C57.9885 101.317 58.3608 100.676 58.6304 100.271C61.0011 96.6983 69.4527 90.2489 72.8676 89.3184C73.2185 89.2245 73.9631 89.0282 74.8745 89.2117C75.5592 89.3483 76.0727 89.6428 76.3808 89.8562C80.6601 94.1032 84.9351 98.3501 89.2144 102.593C89.27 102.635 89.7194 102.973 90.3142 102.823L90.3056 102.828Z" fill="white"/>
<path d="M93.7462 132.104H93.7077C92.1757 132.104 90.969 131.212 90.5196 130.827C89.0946 129.611 82.4147 124.139 72.3113 115.863C68.1775 112.478 63.496 108.641 58.4037 104.471L58.348 104.42C57.6719 103.758 57.2782 102.985 57.2055 102.179C57.1113 101.142 57.5649 100.326 57.9115 99.8013C60.3379 96.1391 69.012 89.4848 72.6408 88.4988C72.9874 88.4049 73.9118 88.1531 75.0415 88.3793C75.6834 88.5074 76.2996 88.7677 76.8602 89.1562L76.98 89.2543L89.7622 101.94C89.8178 101.974 89.9505 102.038 90.1046 101.999C90.2629 101.961 90.3528 101.833 90.3827 101.782L107.252 53.1574L107.29 53.0891C107.632 52.4958 108.086 52.0519 108.638 51.7702C109.725 51.2153 110.855 51.497 111.227 51.5909C116.281 52.8543 121.912 55.6799 122.152 55.7994C122.246 55.8464 124.45 56.9775 130.835 61.1903C131.207 61.4379 132.2 62.0909 132.623 63.3458C132.902 64.1696 132.876 65.1001 132.546 66.0348L132.491 66.1586C124.715 80.4958 99.1552 127.502 96.7332 130.354C95.4066 131.92 93.9516 132.087 93.789 132.099H93.7505L93.7462 132.104ZM59.5205 103.177C64.5958 107.339 69.273 111.168 73.394 114.544C83.5102 122.829 90.1944 128.301 91.6323 129.53C91.8676 129.731 92.6935 130.375 93.6606 130.396C93.8104 130.371 94.6235 130.192 95.4194 129.252C97.2595 127.084 115.695 93.5226 130.942 65.4116C131.126 64.8525 131.143 64.3403 130.993 63.8921C130.758 63.1964 130.142 62.7909 129.88 62.6159C123.667 58.5141 121.429 57.3574 121.369 57.3232C121.138 57.208 115.673 54.4635 110.803 53.247C110.393 53.1446 109.866 53.0592 109.413 53.2897C109.177 53.4092 108.976 53.6055 108.809 53.8744L91.966 102.431L91.9489 102.465C91.8505 102.687 91.4483 103.425 90.5154 103.656C89.7708 103.839 89.0775 103.579 88.6838 103.267L88.6068 103.199L75.8332 90.5177C75.478 90.2873 75.1014 90.1293 74.7077 90.0482C73.976 89.9031 73.3811 90.0653 73.0944 90.1421C69.7994 91.0385 61.5746 97.3769 59.3451 100.74C59.1097 101.099 58.8701 101.53 58.9172 102.025C58.96 102.507 59.2681 102.913 59.5291 103.173L59.5205 103.177Z" fill="#C06228"/>
</g>
<defs>
<linearGradient id="paint0_linear_171_185" x1="94.4608" y1="23.3348" x2="95.5081" y2="148.596" gradientUnits="userSpaceOnUse">
<stop offset="0.1" stop-color="#FED777"/>
<stop offset="0.9" stop-color="#E8952B"/>
</linearGradient>
<clipPath id="clip0_171_185">
<rect width="190" height="175" fill="white"/>
</clipPath>
</defs>
</svg>
