<svg width="200" height="185" viewBox="0 0 200 185" fill="none" xmlns="http://www.w3.org/2000/svg">
<g clip-path="url(#clip0_161_180)">
<path d="M100 185C155.23 185 200 143.587 200 92.5C200 41.4129 155.23 0 100 0C44.7703 0 0 41.4129 0 92.5C0 143.587 44.7703 185 100 185Z" fill="#FBFADA"/>
<path d="M100 162.466C138.523 162.466 169.752 131.141 169.752 92.5C169.752 53.8588 138.523 22.5339 100 22.5339C61.477 22.5339 30.2478 53.8588 30.2478 92.5C30.2478 131.141 61.477 162.466 100 162.466Z" fill="url(#paint0_linear_161_180)"/>
<path d="M81.3515 63.1888C85.7569 70.4084 92.8064 80.9398 99.0452 86.8282C98.6758 78.801 100.514 66.3564 103.23 59.2858C107.122 49.1965 114.392 39.4728 124.451 32.4788C125.036 32.1088 125.185 31.5223 125.698 31.229C118.505 28.1336 110.649 26.2204 102.351 25.8549C92.365 25.4127 82.7479 27.1815 74.0857 30.6424C74.4551 31.1568 74.5992 31.8201 74.5992 32.5556C74.1578 43.2359 75.6262 53.7674 81.428 63.1212L81.356 63.1934L81.3515 63.1888Z" fill="#FFD04E"/>
<path d="M117.108 62.9677C112.554 70.2594 106.023 81.4541 103.45 89.8468C110.644 85.7949 122.905 81.5985 130.617 80.7141C141.631 79.5365 153.892 81.4496 164.905 87.1215C165.491 87.4147 166.153 87.3426 166.595 87.6358C166.153 79.7576 164.32 71.8747 160.869 64.2176C156.757 55.0849 150.811 47.351 143.617 41.2415C143.324 41.7558 142.811 42.2747 142.077 42.568C132.018 47.2066 123.063 53.3928 117.113 62.9677H117.108Z" fill="#F8B019"/>
<path d="M133.333 93.6777C124.815 93.0911 112.04 92.7211 103.522 94.341C110.423 98.7585 119.676 107.526 123.932 113.856C130.027 122.989 133.991 134.626 134.063 146.998C134.063 147.662 134.432 148.176 134.432 148.69C141.113 144.638 147.207 139.264 152.275 132.636C158.369 124.681 162.405 115.769 164.464 106.637C163.878 106.637 163.216 106.416 162.631 105.901C153.968 99.2728 144.423 94.341 133.333 93.601V93.6732V93.6777Z" fill="#F0A020"/>
<path d="M117.18 122.84C113.068 115.548 106.536 104.724 100.586 98.6096C100.586 106.565 98.2343 118.86 95.2253 125.71C90.892 135.506 83.1848 144.86 72.8334 151.339C72.2479 151.709 72.0271 152.296 71.5857 152.517C78.6352 155.905 86.4145 158.112 94.7118 158.924C104.698 159.809 114.315 158.554 123.126 155.463C122.833 154.949 122.685 154.286 122.757 153.55C123.64 142.946 122.757 132.487 117.324 122.912L117.176 122.84H117.18Z" fill="#F0A020"/>
<path d="M86.6396 124.022C90.1622 116.216 95.0811 104.286 96.5496 95.7444C90.0135 100.676 78.4865 106.348 71.0721 108.189C60.3514 110.765 48.0901 110.4 36.491 106.127C35.8288 105.906 35.2432 106.127 34.7297 105.834C36.1982 113.568 39.0631 121.153 43.4685 128.295C48.7568 136.837 55.6577 143.763 63.5135 148.844C63.7342 148.253 64.1757 147.738 64.8333 147.373C74.0856 141.557 82.0856 134.337 86.7117 124.099L86.6396 124.027V124.022Z" fill="#F0A020"/>
<path d="M66.1531 94.8553C74.6711 94.192 87.3738 92.721 95.5225 89.8468C88.1081 86.5348 77.6081 79.1664 72.4684 73.4991C65.1261 65.3997 59.545 54.426 57.7117 42.198C57.6396 41.5347 57.1261 41.0925 57.1261 40.5781C51.1036 45.5867 45.8198 51.7729 41.7792 59.0646C36.8603 67.8273 34.1441 77.181 33.4819 86.607C34.0675 86.607 34.7297 86.607 35.3918 87.0492C44.8648 92.351 55.0675 95.8119 66.1576 94.9275V94.8553H66.1531Z" fill="#F8B019"/>
<path d="M120.631 49.8597C123.568 51.3307 125.698 50.0808 129.59 52.2918C133.995 54.7239 138.401 58.5502 140.676 63.7077C141.482 65.6208 141.995 67.4618 142.144 69.0817C142.293 70.9227 147.284 67.3896 148.383 64.2943C149.703 60.6845 147.797 57.1514 146.622 55.0127C142.365 47.2788 134.288 44.7745 132.306 44.1879C128.27 43.0824 120.928 42.198 119.459 45.0723C118.725 46.5433 119.167 49.1242 120.635 49.8597H120.631Z" fill="#F8FBF4"/>
<path d="M100 26.1437C117.667 26.1437 134.279 33.0428 146.77 45.5777C159.266 58.1126 166.144 74.7761 166.144 92.5C166.144 110.224 159.261 126.887 146.77 139.422C134.275 151.953 117.667 158.856 100 158.856C82.3334 158.856 65.7208 151.957 53.2298 139.422C40.7343 126.887 33.8559 110.224 33.8559 92.5C33.8559 74.7761 40.7388 58.1126 53.2298 45.5777C65.7253 33.0474 82.3334 26.1437 100 26.1437ZM100 22.5339C61.4775 22.5339 30.2478 53.8576 30.2478 92.5C30.2478 131.142 61.4775 162.466 100 162.466C138.523 162.466 169.752 131.142 169.752 92.5C169.752 53.8576 138.523 22.5339 100 22.5339Z" fill="#DF8C26"/>
<path d="M86.9369 76.1884C86.2973 76.1884 85.6846 76.0621 85.1261 75.8139C82.7928 74.7806 82.3378 72.1094 82.2657 71.5228L80.3198 65.296L71.5675 65.7833C71.2702 65.8194 70.9729 65.8374 70.6801 65.8374C67.9729 65.8374 66.027 64.2446 65.7207 61.781C65.6126 60.9146 65.7297 60.0618 66.063 59.3128C67.2117 56.7363 70.3333 56.4295 70.4639 56.4205L78.8874 55.9512L77.1937 49.2461L77.1847 49.1919C76.7973 46.074 78.4459 43.6465 81.1892 43.29C81.4054 43.2629 81.6216 43.2449 81.8378 43.2449C82.4774 43.2449 83.0901 43.3712 83.6486 43.6194C86.0225 44.6707 86.4549 47.4096 86.5135 47.9421L88.2297 54.7419L95.8153 53.0544C96.0045 53.0093 96.4279 52.928 96.9729 52.928C97.7567 52.928 98.9099 53.0995 99.9684 53.9162C101.162 54.8367 101.581 56.064 101.73 56.7093C101.86 57.4177 101.901 58.4419 101.432 59.4978C100.716 61.1132 99.054 62.2141 97.0856 62.3856L89.6621 64.0371L91.5765 70.1556L91.5856 70.2368C91.9729 73.3548 90.3243 75.7823 87.581 76.1388C87.3648 76.1658 87.1441 76.1794 86.9324 76.1794L86.9369 76.1884Z" fill="white"/>
<path d="M81.8423 44.1474C82.2567 44.1474 82.7657 44.2151 83.2928 44.4452C85.3648 45.3657 85.6216 47.9692 85.6351 48.1001L87.5811 55.8114L96.0225 53.9344C96.1216 53.9118 96.4865 53.8306 96.9865 53.8306C97.6621 53.8306 98.5901 53.9795 99.4324 54.6337C100.491 55.4504 100.788 56.565 100.865 56.9124C100.946 57.3546 101.032 58.2209 100.622 59.1369C100.022 60.4815 98.6081 61.375 96.9639 61.5013L88.5225 63.3784L90.7072 70.3587C91.009 72.7908 89.9099 74.9386 87.482 75.2545C87.3333 75.2725 87.1531 75.2906 86.9459 75.2906C86.5315 75.2906 86.0225 75.2229 85.4955 74.9928C83.4234 74.0723 83.1666 71.4687 83.1531 71.3379L80.9684 64.3575L71.4865 64.8855C71.2162 64.9215 70.9459 64.9396 70.6802 64.9396C68.5991 64.9396 66.8829 63.8341 66.6171 61.6773C66.5585 61.2261 66.5405 60.477 66.8874 59.6874C67.8153 57.6073 70.4144 57.3365 70.545 57.323L80.027 56.7951L78.0811 49.0837C77.7793 46.6517 78.8784 44.5039 81.3063 44.188C81.4549 44.17 81.6351 44.1519 81.8378 44.1519M81.8423 42.3425C81.5901 42.3425 81.3288 42.3606 81.0766 42.3922C77.8108 42.8163 75.8423 45.6545 76.2973 49.3003L76.3108 49.4131L76.3378 49.5214L77.7477 55.112L70.4459 55.5181H70.4189H70.3919C70.0045 55.5497 66.5856 55.9333 65.2432 58.9429C64.8423 59.8453 64.6982 60.8651 64.8288 61.8939C65.1892 64.7907 67.5405 66.7354 70.6802 66.7354C70.9955 66.7354 71.3198 66.7174 71.6441 66.6768L79.6666 66.2301L81.3784 71.7079C81.4955 72.5878 82.0811 75.4485 84.7612 76.6352C85.4369 76.9375 86.1711 77.0864 86.9369 77.0864C87.1892 77.0864 87.4504 77.0684 87.7072 77.0368C90.973 76.6126 92.9414 73.7745 92.4865 70.1286L92.4684 69.9662L92.4189 69.8128L90.8243 64.7095L97.2342 63.2836C99.5 63.067 101.419 61.7675 102.261 59.8679C102.707 58.8662 102.833 57.7291 102.631 56.592L102.622 56.5514L102.613 56.5108C102.441 55.7437 101.937 54.2953 100.522 53.1989C99.527 52.4273 98.3018 52.0212 96.9775 52.0212C96.3513 52.0212 95.8603 52.1159 95.6126 52.1701L88.8919 53.6636L87.4054 47.7707C87.3063 46.963 86.7567 43.9985 84.0135 42.7847C83.3378 42.4824 82.6036 42.3335 81.8378 42.3335L81.8423 42.3425Z" fill="#C06228"/>
<path d="M92.3288 146.646L82.991 138.52C86.1982 134.824 89.9189 131.892 94.054 129.811C96.536 128.562 99.0045 127.695 101.599 127.163L104.081 139.301C102.568 139.612 101.108 140.126 99.6126 140.88C96.9234 142.233 94.4774 144.174 92.3333 146.646H92.3288ZM111.432 138.696L110.644 126.328C112.712 126.197 114.36 125.917 116.189 124.947C118.108 123.927 120.077 122.235 121.581 120.304L131.324 127.939C128.748 131.237 125.432 134.057 121.986 135.889C117.982 138.019 114.405 138.497 111.432 138.687V138.696ZM136.176 118.432L124.225 115.228C124.437 114.434 124.545 113.653 124.545 112.909C124.545 112.403 124.495 111.907 124.396 111.424C123.86 108.825 121.968 106.898 120.473 105.739L128.045 95.9383C132.559 99.4353 135.486 103.925 136.513 108.924C136.779 110.224 136.914 111.564 136.914 112.909C136.914 114.732 136.667 116.591 136.176 118.432ZM86.6937 110.228C80.4234 110.228 75.2027 108.771 71.1756 105.897L78.3513 95.803C80.2162 97.1341 83.0991 97.838 86.6937 97.838C88.0315 97.838 89.1036 97.7387 89.7432 97.6801C90.2612 97.6304 90.7612 97.5673 91.2387 97.486L93.3108 109.701C92.5225 109.836 91.7027 109.94 90.8784 110.016C90.1441 110.084 88.6081 110.224 86.6982 110.224L86.6937 110.228ZM103.022 106.163L96.9144 95.3879C97.536 95.0359 98.1396 94.6614 98.7793 94.2688C101.946 92.3241 105.892 89.8875 112.099 90.0635C114.275 90.1266 116.504 90.4966 118.73 91.1644L115.185 103.036C114.009 102.684 112.82 102.481 111.748 102.449C111.653 102.449 111.554 102.449 111.455 102.449C109.221 102.449 107.941 103.18 105.252 104.832C104.55 105.261 103.829 105.707 103.022 106.163ZM64.1306 96.1594C63.4324 93.9846 63.0811 91.6382 63.0811 89.1926C63.0811 84.0081 64.6396 78.6431 67.5856 73.6797L78.2207 80.0103C76.4369 83.0154 75.4549 86.2777 75.4549 89.1926C75.4549 90.3523 75.6081 91.4216 75.9144 92.3737L64.1351 96.1594H64.1306Z" fill="white"/>
<path d="M92.4189 147.919L81.7207 138.61L82.3108 137.929C85.5946 134.143 89.4054 131.142 93.6486 129.004C96.2027 127.718 98.7432 126.824 101.419 126.278L102.302 126.098L105.144 140.004L104.261 140.185C102.829 140.478 101.441 140.97 100.018 141.688C97.4369 142.987 95.0766 144.855 93.0135 147.238L92.4234 147.919H92.4189ZM84.2658 138.439L92.2477 145.383C94.3198 143.14 96.6577 141.358 99.2027 140.077C100.482 139.431 101.734 138.953 103.018 138.624L100.896 128.246C98.6982 128.769 96.5856 129.55 94.455 130.624C90.6802 132.523 87.2568 135.154 84.2658 138.443V138.439ZM110.59 139.657L109.689 125.489L110.59 125.43C112.541 125.304 114.086 125.051 115.77 124.153C117.581 123.188 119.446 121.586 120.874 119.754L121.428 119.041L132.59 127.79L132.036 128.503C129.383 131.896 125.968 134.806 122.414 136.697C118.261 138.908 114.563 139.404 111.495 139.598L110.595 139.657H110.59ZM111.599 127.163L112.27 137.73C114.959 137.5 118.099 136.941 121.559 135.1C124.649 133.457 127.631 130.989 130.041 128.092L121.712 121.563C120.221 123.296 118.396 124.798 116.604 125.75C114.914 126.648 113.383 126.996 111.595 127.163H111.599ZM136.815 119.537L123.126 115.869L123.36 114.998C123.554 114.276 123.649 113.577 123.649 112.913C123.649 112.471 123.604 112.033 123.518 111.609C123.041 109.281 121.302 107.521 119.928 106.456L119.216 105.906L127.887 94.6795L128.599 95.2299C133.284 98.8623 136.324 103.537 137.396 108.748C137.676 110.107 137.82 111.51 137.82 112.913C137.82 114.817 137.559 116.753 137.05 118.671L136.815 119.542V119.537ZM125.293 114.583L135.518 117.326C135.847 115.851 136.014 114.371 136.014 112.913C136.014 111.632 135.883 110.355 135.631 109.114C134.703 104.593 132.14 100.5 128.198 97.2243L121.725 105.603C123.185 106.88 124.775 108.776 125.279 111.248C125.392 111.79 125.446 112.349 125.446 112.913C125.446 113.477 125.396 114.014 125.293 114.587V114.583ZM86.6937 111.131C80.2342 111.131 74.8378 109.615 70.6532 106.632L69.9189 106.109L78.1396 94.5441L78.8739 95.0675C80.5856 96.2903 83.2883 96.9356 86.6937 96.9356C87.991 96.9356 89.036 96.8408 89.6577 96.7821C90.1531 96.737 90.6351 96.6738 91.0856 96.5971L91.973 96.4482L94.3468 110.445L93.4595 110.594C92.6486 110.734 91.8063 110.842 90.9595 110.919C90.2072 110.987 88.6441 111.131 86.6937 111.131ZM72.4459 105.667C76.2117 108.094 81 109.326 86.6937 109.326C88.5586 109.326 90.0676 109.186 90.7928 109.118C91.2928 109.073 91.7838 109.015 92.2703 108.947L90.5 98.5013C90.2793 98.5284 90.0541 98.5509 89.8288 98.5735C89.1757 98.6321 88.0811 98.7359 86.6982 98.7359C83.3649 98.7359 80.5901 98.1448 78.5946 97.0168L72.4459 105.662V105.667ZM102.685 107.39L95.6847 95.0449L96.4685 94.5982C97.0811 94.2508 97.6757 93.8853 98.3063 93.4973C101.595 91.4758 105.662 88.9625 112.122 89.1565C114.374 89.2197 116.68 89.6032 118.986 90.2936L119.851 90.5508L115.788 104.151L114.923 103.893C113.824 103.564 112.716 103.374 111.716 103.343C111.635 103.343 111.541 103.343 111.45 103.343C109.459 103.343 108.324 103.993 105.716 105.594C105.014 106.028 104.284 106.479 103.464 106.944L102.68 107.39H102.685ZM98.1351 95.7173L103.356 104.927C103.851 104.633 104.32 104.345 104.779 104.06C107.545 102.359 108.982 101.542 111.455 101.542C111.563 101.542 111.671 101.542 111.77 101.542C112.658 101.57 113.613 101.7 114.577 101.931L117.608 91.7781C115.743 91.2863 113.887 91.011 112.077 90.9569C106.149 90.7854 102.338 93.1363 99.2703 95.0179C98.8964 95.248 98.518 95.4826 98.1396 95.7082L98.1351 95.7173ZM63.5495 97.2965L63.2748 96.4347C62.5495 94.1696 62.1802 91.733 62.1802 89.1926C62.1802 83.8457 63.7793 78.3228 66.8108 73.2195L67.2703 72.4434L79.4505 79.699L78.991 80.4751C77.2883 83.3448 76.3513 86.4402 76.3513 89.1926C76.3513 90.2575 76.491 91.2367 76.7658 92.0985L77.0405 92.9558L63.545 97.292L63.5495 97.2965ZM67.9099 74.9296C65.3378 79.532 63.982 84.4458 63.982 89.1971C63.982 91.2276 64.2342 93.1814 64.7342 95.0224L74.8198 91.7826C74.6396 90.9749 74.554 90.1086 74.554 89.1971C74.554 86.377 75.4189 83.2636 77.0045 80.3397L67.9144 74.9251L67.9099 74.9296Z" fill="#C06228"/>
</g>
<defs>
<linearGradient id="paint0_linear_161_180" x1="99.4325" y1="24.6682" x2="100.544" y2="157.088" gradientUnits="userSpaceOnUse">
<stop offset="0.1" stop-color="#FED777"/>
<stop offset="0.9" stop-color="#E8952B"/>
</linearGradient>
<clipPath id="clip0_161_180">
<rect width="200" height="185" fill="white"/>
</clipPath>
</defs>
</svg>
