<svg width="96" height="100" viewBox="0 0 96 100" fill="none" xmlns="http://www.w3.org/2000/svg">
<path d="M46.8609 5.36C47.3609 5.36 47.8509 5.43 48.3209 5.57C50.4009 6.2 51.9809 8.22 52.3709 10.67L57.1109 27.64C58.7709 31.65 62.6509 34.3 66.9809 34.39L84.9109 34.8C90.1809 34.92 92.5609 41.46 88.5809 44.93L74.6409 57.13C73.6809 58 71.5509 60.18 70.7909 63.66C70.4409 65.28 70.4809 66.7 70.6109 67.72C70.9709 74.68 71.3209 81.64 71.6809 88.61C71.6309 91.13 70.1409 93.36 67.9309 94.24C67.2209 94.52 66.5209 94.63 65.8809 94.63C64.1109 94.63 62.7509 93.82 62.5509 93.69L49.0709 83.53C48.0509 82.76 46.8309 82.37 45.6109 82.37C44.6209 82.37 43.6409 82.62 42.7509 83.13L28.4009 91.35C26.9809 92.17 25.4909 92.54 24.0609 92.54C18.5809 92.54 13.8509 87.15 15.7609 81.15L19.8809 68.22C20.7809 65.39 20.1009 62.3 18.1009 60.1L7.31089 48.28C3.40089 43.99 5.70089 37.08 11.4009 36L24.3109 33.55C28.2109 32.81 31.5909 30.42 33.5909 27C35.9209 21.44 38.2509 15.88 40.5809 10.32C41.5609 7.21 44.2809 5.37 46.8409 5.36M46.8609 0C41.8609 0 37.2609 3.46 35.5709 8.44L32.5409 15.66L28.8109 24.56C27.5709 26.5 25.5909 27.86 23.3109 28.29L10.4009 30.74C5.79089 31.61 2.15089 34.8 0.670895 39.25C-0.809105 43.7 0.190893 48.43 3.36089 51.9L14.1509 63.72C14.8609 64.49 15.1009 65.6 14.7809 66.6L10.6609 79.53C9.28089 83.87 10.0109 88.43 12.6609 92.06C15.3309 95.72 19.6009 97.91 24.0609 97.91C26.4809 97.91 28.9009 97.26 31.0609 96.02L45.4109 87.8C45.4709 87.76 45.5409 87.75 45.6109 87.75C45.6709 87.75 45.7609 87.76 45.8509 87.83L59.3309 97.99L59.5309 98.14L59.7409 98.27C60.5809 98.79 62.8709 100.01 65.8909 100.01C67.2809 100.01 68.6309 99.75 69.9109 99.24C74.1509 97.55 76.9509 93.43 77.0309 88.73V88.36L75.9509 67.47V67.27L75.9109 67.08C75.8109 66.31 75.8509 65.56 76.0109 64.83C76.3909 63.1 77.4009 61.88 78.2009 61.14L92.1009 48.98C95.5909 45.93 96.8209 41.15 95.2409 36.8C93.6609 32.45 89.6509 29.56 85.0209 29.46L67.0909 29.05C64.9709 29 63.0509 27.75 62.1509 25.84L57.5809 9.48C56.7609 5.15 53.7609 1.63 49.8509 0.450001C48.8909 0.160001 47.8809 0.0100002 46.8509 0.0100002L46.8609 0Z" fill="white"/>
<path d="M46.861 5.36998C47.361 5.36998 47.851 5.43998 48.321 5.57998C50.401 6.20998 51.9809 8.22998 52.3709 10.68L57.111 27.65C58.771 31.66 62.6509 34.31 66.9809 34.4L84.9109 34.81C90.1809 34.93 92.5609 41.47 88.5809 44.95L74.641 57.15C73.681 58.02 71.551 60.2 70.791 63.68C70.441 65.3 70.481 66.72 70.611 67.74C70.971 74.7 71.321 81.66 71.681 88.63C71.631 91.15 70.141 93.38 67.931 94.26C67.221 94.54 66.521 94.65 65.881 94.65C64.111 94.65 62.7509 93.84 62.5509 93.71L49.071 83.54C48.051 82.77 46.831 82.38 45.601 82.38C44.621 82.38 43.631 82.63 42.741 83.14L28.391 91.36C26.961 92.18 25.481 92.54 24.051 92.54C18.571 92.54 13.841 87.15 15.751 81.15L19.871 68.22C20.771 65.39 20.101 62.3 18.091 60.1L7.30095 48.28C3.39095 43.99 5.69095 37.08 11.391 36L24.301 33.55C28.201 32.81 31.5809 30.42 33.5809 27C35.9109 21.44 38.241 15.88 40.571 10.32C41.551 7.21997 44.2709 5.36998 46.8309 5.36998M46.861 4.86998C43.871 4.86998 41.1009 7.04997 40.1209 10.17L36.641 18.47L33.1609 26.78C31.2309 30.06 27.9709 32.35 24.2309 33.06L11.321 35.51C8.46095 36.05 6.21095 38.02 5.29095 40.78C4.37095 43.54 4.99095 46.47 6.96095 48.62L17.751 60.44C19.631 62.49 20.271 65.42 19.421 68.07L15.301 81C14.391 83.84 14.871 86.82 16.591 89.19C18.351 91.6 21.1509 93.05 24.0709 93.05C25.6709 93.05 27.2109 92.63 28.6609 91.8L43.0109 83.58C43.8009 83.12 44.7109 82.88 45.6209 82.88C46.7709 82.88 47.871 83.25 48.781 83.94L62.1609 94.03V94.05L62.3009 94.13C62.6809 94.37 64.081 95.14 65.891 95.14C66.661 95.14 67.4109 95 68.1209 94.71C70.5409 93.75 72.131 91.36 72.181 88.62L71.641 78.14L71.101 67.7C70.931 66.35 70.991 65.04 71.271 63.77C71.931 60.78 73.651 58.71 74.971 57.5L88.9009 45.31C90.9009 43.57 91.571 40.93 90.671 38.44C89.771 35.95 87.5609 34.36 84.9109 34.3L66.9809 33.89C62.8509 33.8 59.161 31.28 57.571 27.47L52.851 10.55C52.411 7.89997 50.691 5.75998 48.451 5.07998C47.941 4.92998 47.401 4.84998 46.851 4.84998L46.861 4.86998Z" fill="#7F6526"/>
<path d="M48.0109 50.07C48.0109 50.07 47.9909 50.04 47.9809 50.03C49.6009 59.49 50.881 69.16 46.351 82.43C47.321 82.55 48.271 82.93 49.091 83.54L61.061 92.56C61.781 70.62 55.0709 60.07 48.0109 50.07Z" fill="#F9DB46"/>
<path d="M47.9808 50.03C45.9308 56.73 43.8808 63.44 39.2108 70.46C34.8808 77.16 28.1408 84.16 19.7308 91.37C22.2308 92.82 25.4308 93.08 28.4108 91.37L42.7608 83.15C43.8708 82.51 45.1208 82.28 46.3408 82.44C50.8808 69.17 49.6008 59.5 47.9808 50.04V50.03Z" fill="#EFB329"/>
<path d="M39.1909 70.45C43.8609 63.43 45.9209 56.73 47.9709 50.02C43.1809 55.13 38.4009 60.23 31.1209 64.52C27.7509 66.54 23.8209 68.39 19.3009 70.03L15.7509 81.15C14.3809 85.45 16.4109 89.42 19.6909 91.34C28.1009 84.14 34.8509 77.14 39.1809 70.44L39.1909 70.45Z" fill="#F9DB46"/>
<path d="M47.9809 50.03C47.9809 50.03 47.9309 50.05 47.9009 50.06C38.4309 53.68 28.9409 57.27 13.6609 55.23L18.1209 60.12C20.1209 62.31 20.8009 65.41 19.9009 68.24L19.3309 70.04C23.8409 68.39 27.7609 66.56 31.1309 64.54C38.4109 60.26 43.1909 55.15 47.9809 50.05V50.03Z" fill="#EFB329"/>
<path d="M47.9008 50.06C47.9008 50.06 47.9508 50.04 47.9808 50.03C40.9108 49.43 33.8508 48.83 25.9308 45.8C20.7608 43.87 15.2208 40.89 9.28084 36.75C5.20085 38.92 3.94084 44.59 7.32084 48.29L13.6408 55.21C28.9308 57.27 38.4208 53.67 47.9008 50.06Z" fill="#F9DB46"/>
<path d="M47.9809 50.03C47.9809 50.03 47.9309 50 47.9009 49.98C41.7709 46.41 35.6409 42.82 29.8309 36.7C28.7009 35.54 27.5909 34.29 26.4809 32.95C25.7809 33.21 25.0609 33.41 24.3209 33.55L11.4109 36C10.6409 36.15 9.9409 36.4 9.3009 36.74C15.2309 40.87 20.7609 43.85 25.9309 45.79C33.8409 48.82 40.9109 49.43 47.9809 50.03Z" fill="#EFB329"/>
<path d="M47.9009 49.98C47.9009 49.98 47.9509 50.01 47.9809 50.03C42.6909 42.54 37.5809 34.76 35.6509 22.12L33.6109 27C31.9909 29.77 29.4709 31.86 26.5009 32.95C27.6009 34.29 28.7109 35.54 29.8409 36.7C35.6409 42.82 41.7709 46.41 47.9009 49.98Z" fill="#F9DB46"/>
<path d="M52.3709 10.68C51.9709 8.22003 50.4009 6.20003 48.3109 5.57003C45.4009 4.69003 41.7609 6.61003 40.5909 10.31C38.9409 14.23 37.2909 18.16 35.6509 22.08C37.5809 34.73 42.6809 42.52 47.9709 50.01C46.0809 38.98 44.6509 27.66 52.3709 10.67V10.68Z" fill="#EFB329"/>
<path d="M47.9809 50.03C50.0309 43.33 52.0809 36.62 56.7509 29.6C56.9909 29.23 57.2509 28.85 57.5009 28.48C57.3609 28.21 57.2309 27.93 57.1109 27.65L52.3809 10.72C44.6609 27.7 46.0909 39.01 47.9809 50.04V50.03Z" fill="#F9DB46"/>
<path d="M47.9808 50.03C52.7708 44.92 57.5508 39.82 64.8308 35.53C65.4808 35.14 66.1508 34.77 66.8308 34.39C62.8708 34.24 59.3208 31.97 57.5108 28.49C57.2608 28.86 57.0008 29.24 56.7608 29.61C52.0908 36.63 50.0308 43.33 47.9808 50.04V50.03Z" fill="#EFB329"/>
<path d="M47.9808 50.03C58.5408 46 69.1108 41.97 87.6808 45.74L88.5908 44.94C92.5608 41.47 90.1908 34.92 84.9208 34.81L66.9908 34.4C66.9908 34.4 66.9008 34.4 66.8508 34.4C66.1608 34.77 65.4808 35.16 64.8308 35.55C57.5508 39.83 52.7708 44.94 47.9808 50.04V50.03Z" fill="#F9DB46"/>
<path d="M47.9808 50.03C55.0508 50.63 62.1108 51.23 70.0308 54.26C71.7508 54.9 73.5208 55.67 75.3308 56.55L87.6708 45.76C69.1108 41.98 58.5508 46.01 47.9908 50.03H47.9808Z" fill="#EFB329"/>
<path d="M70.0209 54.27C62.1109 51.24 55.0409 50.63 47.9709 50.03C48.0009 50.04 48.0209 50.06 48.0409 50.07C54.1809 53.64 60.3109 57.23 66.1109 63.35C67.6509 64.92 69.1609 66.69 70.6509 68.6L70.6109 67.73C70.4809 66.7 70.4409 65.28 70.7909 63.67C71.5509 60.19 73.6809 58.01 74.6409 57.14L75.3009 56.56C73.5009 55.68 71.7309 54.91 70.0109 54.27H70.0209Z" fill="#F9DB46"/>
<path d="M48.0508 50.07C48.0508 50.07 48.0008 50.04 47.9808 50.03C47.9808 50.03 48.0008 50.06 48.0108 50.07C55.0808 60.08 61.7908 70.63 61.0808 92.58L62.5708 93.7C62.8408 93.87 65.2608 95.31 67.9408 94.25C70.1508 93.37 71.6408 91.14 71.6908 88.62C71.3508 81.95 71.0108 75.29 70.6708 68.62C69.1808 66.7 67.6608 64.94 66.1208 63.36C60.3208 57.24 54.1908 53.65 48.0508 50.07Z" fill="#EFB329"/>
</svg>
