<svg width="96" height="100" viewBox="0 0 96 100" fill="none" xmlns="http://www.w3.org/2000/svg">
<path d="M46.8609 5.36C47.3609 5.36 47.8509 5.43 48.3209 5.57C50.4009 6.2 51.9809 8.22 52.3709 10.67L57.1109 27.64C58.7709 31.65 62.6509 34.3 66.9809 34.39L84.9109 34.8C90.1809 34.92 92.5609 41.46 88.5809 44.93L74.6409 57.13C73.6809 58 71.5509 60.18 70.7909 63.66C70.4409 65.28 70.4809 66.7 70.6109 67.72C70.9709 74.68 71.3209 81.64 71.6809 88.61C71.6309 91.13 70.1409 93.36 67.9309 94.24C67.2209 94.52 66.5209 94.63 65.8809 94.63C64.1109 94.63 62.7509 93.82 62.5509 93.69L49.0709 83.53C48.0509 82.76 46.8309 82.37 45.6109 82.37C44.6209 82.37 43.6409 82.62 42.7509 83.13L28.4009 91.35C26.9809 92.17 25.4909 92.54 24.0609 92.54C18.5809 92.54 13.8509 87.15 15.7609 81.15L19.8809 68.22C20.7809 65.39 20.1009 62.3 18.1009 60.1L7.31091 48.28C3.40091 43.99 5.7009 37.08 11.4009 36L24.3109 33.55C28.2109 32.81 31.5909 30.42 33.5909 27C35.9209 21.44 38.2509 15.88 40.5809 10.32C41.5609 7.21 44.2809 5.37 46.8409 5.36M46.8609 0C41.8609 0 37.2609 3.46 35.5709 8.44L32.5409 15.66L28.8109 24.56C27.5709 26.5 25.5909 27.86 23.3109 28.29L10.4009 30.74C5.7909 31.61 2.15089 34.8 0.670894 39.25C-0.809106 43.7 0.190896 48.43 3.3609 51.9L14.1509 63.72C14.8609 64.49 15.1009 65.6 14.7809 66.6L10.6609 79.53C9.28088 83.87 10.0109 88.43 12.6609 92.06C15.3309 95.72 19.6009 97.91 24.0609 97.91C26.4809 97.91 28.9009 97.26 31.0609 96.02L45.4109 87.8C45.4709 87.76 45.5409 87.75 45.6109 87.75C45.6709 87.75 45.7609 87.76 45.8509 87.83L59.3309 97.99L59.5309 98.14L59.7409 98.27C60.5809 98.79 62.8709 100.01 65.8909 100.01C67.2809 100.01 68.6309 99.75 69.9109 99.24C74.1509 97.55 76.9509 93.43 77.0309 88.73V88.36L75.9509 67.47V67.27L75.9109 67.08C75.8109 66.31 75.8509 65.56 76.0109 64.83C76.3909 63.1 77.4009 61.88 78.2009 61.14L92.1009 48.98C95.5909 45.93 96.8209 41.15 95.2409 36.8C93.6609 32.45 89.6509 29.56 85.0209 29.46L67.0909 29.05C64.9709 29 63.0509 27.75 62.1509 25.84L57.5809 9.48C56.7609 5.15 53.7609 1.63 49.8509 0.450001C48.8909 0.160001 47.8809 0.0100002 46.8509 0.0100002L46.8609 0Z" fill="white"/>
<path d="M46.871 5.36998C47.371 5.36998 47.861 5.43998 48.331 5.57998C50.411 6.20998 51.9909 8.22998 52.3809 10.68L57.121 27.65C58.781 31.66 62.661 34.31 66.991 34.4L84.921 34.81C90.191 34.93 92.571 41.47 88.591 44.95L74.651 57.15C73.691 58.02 71.561 60.2 70.801 63.68C70.451 65.3 70.491 66.72 70.621 67.74C70.981 74.7 71.331 81.66 71.691 88.63C71.641 91.15 70.151 93.38 67.941 94.26C67.231 94.54 66.531 94.65 65.891 94.65C64.121 94.65 62.761 93.84 62.561 93.71L49.081 83.54C48.061 82.77 46.841 82.38 45.611 82.38C44.631 82.38 43.641 82.63 42.751 83.14L28.401 91.36C26.971 92.18 25.491 92.54 24.061 92.54C18.581 92.54 13.851 87.15 15.761 81.15L19.8809 68.22C20.7809 65.39 20.1109 62.3 18.1009 60.1L7.31097 48.28C3.40097 43.99 5.70096 37.08 11.401 36L24.311 33.55C28.211 32.81 31.591 30.42 33.591 27C35.921 21.44 38.251 15.88 40.581 10.32C41.561 7.21997 44.281 5.36998 46.841 5.36998M46.871 4.86998C43.881 4.86998 41.1109 7.04997 40.1309 10.17L36.651 18.47L33.171 26.78C31.241 30.06 27.981 32.35 24.241 33.06L11.331 35.51C8.47096 36.05 6.22096 38.02 5.30096 40.78C4.38096 43.54 5.00097 46.47 6.97097 48.62L17.761 60.44C19.641 62.49 20.281 65.42 19.431 68.07L15.311 81C14.401 83.84 14.8809 86.82 16.6009 89.19C18.3609 91.6 21.161 93.05 24.081 93.05C25.681 93.05 27.221 92.63 28.671 91.8L43.021 83.58C43.811 83.12 44.7209 82.88 45.6309 82.88C46.7809 82.88 47.881 83.25 48.791 83.94L62.171 94.03V94.05L62.311 94.13C62.691 94.37 64.091 95.14 65.901 95.14C66.671 95.14 67.4209 95 68.1309 94.71C70.5509 93.75 72.141 91.36 72.191 88.62L71.871 82.33L71.121 67.7C70.951 66.35 71.0109 65.04 71.2909 63.77C71.9509 60.78 73.671 58.71 74.991 57.5L88.921 45.31C90.921 43.57 91.591 40.93 90.691 38.44C89.791 35.95 87.581 34.36 84.931 34.3L67.001 33.89C62.871 33.8 59.181 31.28 57.591 27.47L52.871 10.55C52.431 7.89997 50.711 5.75998 48.471 5.07998C47.961 4.92998 47.421 4.84998 46.871 4.84998V4.86998Z" fill="#5E5E5E"/>
<path d="M48.0108 50.07C48.0108 50.07 47.9908 50.04 47.9808 50.03C49.6008 59.49 50.8808 69.16 46.3508 82.43C47.3208 82.55 48.2709 82.93 49.0909 83.54L61.0609 92.56C61.7809 70.62 55.0708 60.07 48.0108 50.07Z" fill="#E6E6E6"/>
<path d="M47.981 50.03C45.931 56.73 43.881 63.44 39.211 70.46C34.881 77.16 28.141 84.16 19.731 91.37C22.231 92.82 25.4309 93.08 28.4109 91.37L42.761 83.15C43.871 82.51 45.121 82.28 46.341 82.44C50.881 69.17 49.601 59.5 47.981 50.04V50.03Z" fill="#C2C2C2"/>
<path d="M39.2009 70.45C43.8709 63.43 45.9309 56.73 47.9809 50.02C43.1909 55.13 38.4109 60.23 31.1309 64.52C27.7609 66.54 23.8309 68.39 19.3109 70.03L15.7609 81.15C14.3909 85.45 16.4209 89.42 19.7009 91.34C28.1109 84.14 34.861 77.14 39.191 70.44L39.2009 70.45Z" fill="#E6E6E6"/>
<path d="M47.9809 50.03C47.9809 50.03 47.9309 50.05 47.9009 50.06C38.4309 53.68 28.9409 57.27 13.6609 55.23L18.1209 60.12C20.1209 62.31 20.8009 65.41 19.9009 68.24L19.3309 70.04C23.8409 68.39 27.7609 66.56 31.1309 64.54C38.4109 60.26 43.1909 55.15 47.9809 50.05V50.03Z" fill="#C2C2C2"/>
<path d="M47.9009 50.06C47.9009 50.06 47.9508 50.04 47.9808 50.03C40.9108 49.43 33.8509 48.83 25.9309 45.8C20.7609 43.87 15.2209 40.89 9.28086 36.75C5.20086 38.92 3.94084 44.59 7.32084 48.29L13.6408 55.21C28.9308 57.27 38.4209 53.67 47.9009 50.06Z" fill="#E6E6E6"/>
<path d="M47.9809 50.03C47.9809 50.03 47.9309 50 47.9009 49.98C41.7709 46.41 35.6409 42.82 29.8309 36.7C28.7009 35.54 27.5909 34.29 26.4809 32.95C25.7809 33.21 25.0609 33.41 24.3209 33.55L11.4109 36C10.6409 36.15 9.9409 36.4 9.3009 36.74C15.2309 40.87 20.7609 43.85 25.9309 45.79C33.8409 48.82 40.9109 49.43 47.9809 50.03Z" fill="#C2C2C2"/>
<path d="M47.901 49.98C47.901 49.98 47.951 50.01 47.981 50.03C42.691 42.54 37.581 34.76 35.651 22.12L33.611 27C31.991 29.77 29.471 31.86 26.501 32.95C27.601 34.29 28.711 35.54 29.841 36.7C35.641 42.82 41.771 46.41 47.901 49.98Z" fill="#E6E6E6"/>
<path d="M52.3709 10.68C51.9709 8.22003 50.4009 6.20003 48.3109 5.57003C45.4009 4.69003 41.7609 6.61003 40.5909 10.31C38.9409 14.23 37.2909 18.16 35.6509 22.08C37.5809 34.73 42.6809 42.52 47.9709 50.01C46.0809 38.98 44.6509 27.66 52.3709 10.67V10.68Z" fill="#C2C2C2"/>
<path d="M47.9809 50.03C50.0309 43.33 52.0809 36.62 56.7509 29.6C56.9909 29.23 57.2509 28.85 57.5009 28.48C57.3609 28.21 57.2309 27.93 57.1109 27.65L52.3809 10.72C44.6609 27.7 46.0909 39.01 47.9809 50.04V50.03Z" fill="#E6E6E6"/>
<path d="M47.981 50.03C52.771 44.92 57.551 39.82 64.831 35.53C65.481 35.14 66.151 34.77 66.831 34.39C62.871 34.24 59.321 31.97 57.511 28.49C57.261 28.86 57.001 29.24 56.761 29.61C52.091 36.63 50.031 43.33 47.981 50.04V50.03Z" fill="#C2C2C2"/>
<path d="M47.981 50.03C58.541 46 69.111 41.97 87.681 45.74L88.591 44.94C92.561 41.47 90.191 34.92 84.921 34.81L66.991 34.4C66.991 34.4 66.901 34.4 66.851 34.4C66.161 34.77 65.481 35.16 64.831 35.55C57.551 39.83 52.771 44.94 47.981 50.04V50.03Z" fill="#E6E6E6"/>
<path d="M47.981 50.03C55.051 50.63 62.111 51.23 70.031 54.26C71.751 54.9 73.521 55.67 75.331 56.55L87.671 45.76C69.111 41.98 58.551 46.01 47.991 50.03H47.981Z" fill="#C2C2C2"/>
<path d="M70.031 54.27C62.121 51.24 55.051 50.63 47.981 50.03C48.011 50.04 48.031 50.06 48.051 50.07C54.191 53.64 60.321 57.23 66.121 63.35C67.661 64.92 69.1709 66.69 70.6609 68.6L70.621 67.73C70.491 66.7 70.451 65.28 70.801 63.67C71.561 60.19 73.691 58.01 74.651 57.14L75.311 56.56C73.511 55.68 71.741 54.91 70.021 54.27H70.031Z" fill="#E6E6E6"/>
<path d="M48.051 50.07C48.051 50.07 48.001 50.04 47.981 50.03C47.981 50.03 48.001 50.06 48.011 50.07C55.081 60.08 61.791 70.63 61.081 92.58L62.571 93.7C62.841 93.87 65.261 95.31 67.941 94.25C70.151 93.37 71.641 91.14 71.691 88.62C71.351 81.95 71.011 75.29 70.671 68.62C69.181 66.7 67.661 64.94 66.121 63.36C60.321 57.24 54.191 53.65 48.051 50.07Z" fill="#C2C2C2"/>
</svg>
